<svg width="300" height="300" viewBox="0 0 300 300" fill="none" xmlns="http://www.w3.org/2000/svg">
<path d="M260 0C282.091 0 300 17.9086 300 40C300 62.0914 282.091 80 260 80C225.298 80 191.868 40.0003 157.166 40H104C68.6538 40 40 68.6538 40 104V196C40 231.346 68.6538 260 104 260H215C239.853 260 260 239.853 260 215V201.289C260 184.009 245.991 170 228.711 170C215.451 170 204.194 178.977 195.562 189.042C184.558 201.872 168.228 210 150 210C116.863 210 90 183.137 90 150C90 116.863 116.863 90 150 90C159.928 90 169.292 92.4118 177.54 96.6807C201.629 109.149 224.72 130 251.844 130H280C291.046 130 300 138.954 300 150V280C300 291.046 291.046 300 280 300H20C8.95431 300 0 291.046 0 280V20C0 8.95431 8.95431 0 20 0H260ZM150 130C138.954 130 130 138.954 130 150C130 161.046 138.954 170 150 170C161.046 170 170 161.046 170 150C170 138.954 161.046 130 150 130Z" fill="black"/>
</svg>
